<svg xmlns="http://www.w3.org/2000/svg" viewBox="0 0 256 256" role="img" aria-label="Zuiti example soft wave">
  <defs>
    <filter id="shadow" x="-20%" y="-20%" width="140%" height="140%">
      <feDropShadow dx="0" dy="8" stdDeviation="7" flood-color="#111827" flood-opacity=".16"/>
    </filter>
  </defs>
  <g filter="url(#shadow)">
    <ellipse cx="128" cy="214" rx="58" ry="13" fill="#111827" opacity=".12"/>
    <path d="M68 88 L84 39 L116 74 Z" fill="#fff7ed" stroke="#111827" stroke-width="7" stroke-linejoin="round"/>
    <path d="M188 88 L172 39 L140 74 Z" fill="#fff7ed" stroke="#111827" stroke-width="7" stroke-linejoin="round"/>
    <path d="M82 58 L89 80 L101 72 Z" fill="#f9a8d4"/>
    <path d="M174 58 L167 80 L155 72 Z" fill="#f9a8d4"/>
    <circle cx="128" cy="130" r="72" fill="#fff7ed" stroke="#111827" stroke-width="7"/>
    <path d="M77 99 C84 63 116 53 130 59 C115 78 100 89 77 99 Z" fill="#111827"/>
    <path d="M145 62 C169 61 187 82 193 108 C173 101 157 87 145 62 Z" fill="#111827"/>
    <path d="M94 116 Q103 124 112 116" fill="none" stroke="#111827" stroke-width="6" stroke-linecap="round"/>
    <path d="M144 116 Q153 124 162 116" fill="none" stroke="#111827" stroke-width="6" stroke-linecap="round"/>
    <path d="M124 132 L132 132 L128 140 Z" fill="#f472b6" stroke="#111827" stroke-width="4" stroke-linejoin="round"/>
    <path d="M116 148 Q128 158 140 148" fill="none" stroke="#111827" stroke-width="5" stroke-linecap="round"/>
    <circle cx="85" cy="138" r="10" fill="#f9a8d4" opacity=".55"/>
    <circle cx="171" cy="138" r="10" fill="#f9a8d4" opacity=".55"/>
    <path d="M75 110 h-24 M77 126 h-27 M181 110 h24 M179 126 h27" stroke="#111827" stroke-width="4" stroke-linecap="round" opacity=".7"/>
    <path d="M189 165 C226 160 225 208 188 199" fill="none" stroke="#111827" stroke-width="10" stroke-linecap="round"/>
    <g>
      <animateTransform attributeName="transform" type="rotate" values="-8 82 155;14 82 155;-8 82 155" dur="1.1s" repeatCount="indefinite"/>
      <path d="M74 151 C55 137 51 116 62 102" fill="none" stroke="#111827" stroke-width="9" stroke-linecap="round"/>
      <circle cx="62" cy="102" r="13" fill="#fff7ed" stroke="#111827" stroke-width="6"/>
      <path d="M50 87 L43 74 M62 84 L61 69 M76 89 L86 78" stroke="#f9a8d4" stroke-width="5" stroke-linecap="round"/>
    </g>
  </g>
</svg>
